<svg xmlns="http://www.w3.org/2000/svg" xmlns:xlink="http://www.w3.org/1999/xlink" version="1.1" id="Layer_1" x="0px" y="0px" viewBox="0 0 512 512" style="enable-background:new 0 0 512 512;" xml:space="preserve">
<path style="fill:#87BDF4;" d="M512,256c0,141.241-114.759,256-256,256S0,397.241,0,256S114.759,0,256,0S512,114.759,512,256"/>
<polygon style="fill:#264159;" points="132.414,335.448 379.586,335.448 379.586,300.138 132.414,300.138 "/>
<g>
	<path style="fill:#395B7E;" d="M300.138,114.759V70.621h-88.276v44.138c0,65.324-11.476,128-28.248,185.379h144.772   C311.614,242.759,300.138,180.083,300.138,114.759"/>
	<path style="fill:#395B7E;" d="M339.862,335.448H172.138c-17.655,52.083-38.841,97.103-58.262,133.297   C154.483,496.11,203.917,512,256,512s101.517-15.89,142.124-43.255C378.703,432.552,357.517,387.531,339.862,335.448"/>
</g>
<path style="fill:#FFFFFF;" d="M505.821,201.269c-8.828-41.49-27.366-78.566-53.848-110.345  c-13.241,3.531-24.717,14.124-24.717,40.607c0,5.297-7.062,7.945-12.359,7.945h-2.648c-13.241,0-26.483,7.945-30.014,21.186  c-7.062,21.186,8.828,41.49,30.014,41.49h85.628C499.641,203.034,503.172,202.152,505.821,201.269"/>
<polygon style="fill:#264159;" points="185.379,70.621 326.621,70.621 326.621,35.31 185.379,35.31 "/>
<g>
	<polygon style="fill:#5686B2;" points="247.172,300.138 264.828,300.138 264.828,114.759 247.172,114.759  "/>
	<polygon style="fill:#5686B2;" points="247.172,512 264.828,512 264.828,335.448 247.172,335.448  "/>
</g>
<path style="fill:#395B7E;" d="M220.69,35.31h70.621V2.648C279.835,0.883,268.359,0,256,0s-23.834,0.883-35.31,2.648V35.31z"/>
<g>
	<path style="fill:#5686B2;" d="M398.124,468.745c-3.531-7.062-7.945-15.007-11.476-22.952L269.241,335.448h-22.069   c0,2.648,0.883,4.414,2.648,6.179l140.359,132.414C392.828,472.276,395.476,470.51,398.124,468.745"/>
	<path style="fill:#5686B2;" d="M340.745,496.993c0-0.883-0.883-2.648-1.766-3.531l-76.8-76.8c-3.531-3.531-8.828-3.531-12.359,0   c-3.531,3.531-3.531,8.828,0,12.359l73.269,73.269C329.269,501.407,334.566,499.641,340.745,496.993"/>
	<path style="fill:#5686B2;" d="M242.759,511.117c4.414,0,8.828,0.883,13.241,0.883c2.648,0,6.179,0,8.828,0   c0-1.766-0.883-4.414-2.648-6.179L152.717,396.359c-0.883-0.883-1.766-1.766-2.648-1.766c-2.648,5.297-4.414,11.476-7.062,16.772   L242.759,511.117z"/>
	<path style="fill:#5686B2;" d="M247.172,512c2.648,0,6.179,0,8.828,0c4.414,0,8.828,0,13.241-0.883l100.635-100.634   c-2.648-5.297-4.414-11.476-7.062-16.772c-0.883,0-1.766,0.883-2.648,1.766L249.821,505.821   C248.055,507.586,247.172,509.352,247.172,512"/>
	<path style="fill:#5686B2;" d="M262.179,429.903l82.097-82.097c-1.766-4.414-2.648-7.945-4.414-12.359h-7.945l-82.097,82.097   c-3.531,3.531-3.531,8.828,0,12.359c1.766,1.766,4.414,2.648,6.179,2.648C257.766,432.552,260.414,431.669,262.179,429.903"/>
	<path style="fill:#5686B2;" d="M167.724,347.807l82.097,82.097c1.766,1.766,4.414,2.648,6.179,2.648   c2.648,0,4.414-0.883,6.179-2.648c3.531-3.531,3.531-8.828,0-12.359l-82.097-82.097h-7.945   C170.372,339.862,169.49,343.393,167.724,347.807"/>
	<path style="fill:#5686B2;" d="M118.29,460.8c-1.766,2.648-2.648,6.179-4.414,8.828c4.414,2.648,8.828,5.297,13.241,7.945   L262.179,342.51c1.766-1.766,2.648-4.414,2.648-6.179h-21.186L118.29,460.8z"/>
	<path style="fill:#5686B2;" d="M168.607,496.11c6.179,1.766,12.359,4.414,17.655,6.179l75.917-72.386   c3.531-3.531,3.531-8.828,0-12.359s-8.828-3.531-12.359,0l-79.448,75.917C169.49,494.345,168.607,495.228,168.607,496.11"/>
	<path style="fill:#5686B2;" d="M321.324,273.655c-1.766-6.179-2.648-11.476-4.414-17.655c-1.766,0-3.531,0.883-5.297,2.648   l-35.31,35.31c-1.766,1.766-2.648,3.531-2.648,6.179h21.186L321.324,273.655z"/>
	<path style="fill:#5686B2;" d="M200.386,258.648c-1.766-1.766-3.531-2.648-5.297-2.648c-1.766,6.179-2.648,11.476-4.414,17.655   l26.483,26.483h21.186c0-2.648-0.883-4.414-2.648-6.179L200.386,258.648z"/>
	<path style="fill:#5686B2;" d="M190.676,272.772c0.883,0.883,2.648,0.883,3.531,0.883c2.648,0,4.414-0.883,6.179-2.648l102.4-102.4   c-0.883-6.179-0.883-12.359-1.766-18.538c-2.648,0-5.297,0-7.062,2.648l-97.986,97.986   C194.207,257.766,192.441,265.71,190.676,272.772"/>
	<path style="fill:#5686B2;" d="M209.214,168.607l102.4,102.4c1.766,1.766,4.414,2.648,6.179,2.648c0.883,0,2.648,0,3.531-0.883   c-1.766-7.062-3.531-15.007-5.297-22.952l-99.752-98.869c-1.766-1.766-3.531-2.648-6.179-2.648   C210.097,155.366,210.097,162.428,209.214,168.607"/>
	<path style="fill:#5686B2;" d="M295.724,166.841c1.766,1.766,4.414,2.648,6.179,2.648h0.883   c-0.883-7.062-0.883-15.007-1.766-22.069l-38.841-38.841c-3.531-3.531-8.828-3.531-12.359,0c-3.531,3.531-3.531,8.828,0,12.359   L295.724,166.841z"/>
	<path style="fill:#5686B2;" d="M209.214,165.959C210.097,165.959,210.097,165.959,209.214,165.959c2.648,0,5.297-0.883,7.062-1.766   l45.903-42.372c3.531-3.531,3.531-8.828,0.883-12.359c-3.531-3.531-8.828-3.531-12.359-0.883l-38.841,36.193   C210.979,151.834,210.097,158.897,209.214,165.959"/>
	<path style="fill:#5686B2;" d="M256,123.586c2.648,0,4.414-0.883,6.179-2.648l37.959-37.959V70.621h-12.359L249.82,108.58   c-3.531,3.531-3.531,8.828,0,12.359C251.586,122.703,253.352,123.586,256,123.586"/>
	<path style="fill:#5686B2;" d="M211.862,82.979l37.959,37.959c1.766,1.766,4.414,2.648,6.179,2.648   c1.766,0,4.414-0.883,6.179-2.648c3.531-3.531,3.531-8.828,0-12.359L224.22,70.62h-12.359v12.359H211.862z"/>
</g>
<g>
</g>
<g>
</g>
<g>
</g>
<g>
</g>
<g>
</g>
<g>
</g>
<g>
</g>
<g>
</g>
<g>
</g>
<g>
</g>
<g>
</g>
<g>
</g>
<g>
</g>
<g>
</g>
<g>
</g>
</svg>